<?xml version="1.0" encoding="iso-8859-1"?>
<!-- Generator: Adobe Illustrator 25.2.3, SVG Export Plug-In . SVG Version: 6.00 Build 0)  -->
<svg version="1.1" baseProfile="basic" id="fluent" xmlns="http://www.w3.org/2000/svg" xmlns:xlink="http://www.w3.org/1999/xlink"
	 x="0px" y="0px" viewBox="0 0 48 48" xml:space="preserve">
<path style="fill:#4FC3F7;" d="M45,8H3v32h42V8z"/>
<circle style="fill:#1565C0;" cx="16" cy="21" r="8"/>
<path style="fill:#FF8F00;" d="M16,21l0-9c2.387,0.001,4.677,0.949,6.364,2.636S25,18.613,25,21L16,21z"/>
<path style="fill:#1565C0;" d="M39,36H24l-1-1l1-1h15V36z"/>
<path style="fill:#FF8F00;" d="M24,34v2H9v-2H24z"/>
<path style="fill:#FF8F00;" d="M37.5,16h-6c-0.828,0-1.5-0.672-1.5-1.5l0,0c0-0.828,0.672-1.5,1.5-1.5h6c0.828,0,1.5,0.672,1.5,1.5
	l0,0C39,15.328,38.328,16,37.5,16z"/>
<path style="fill:#1565C0;" d="M37.5,22h-6c-0.828,0-1.5-0.672-1.5-1.5l0,0c0-0.828,0.672-1.5,1.5-1.5h6c0.828,0,1.5,0.672,1.5,1.5
	l0,0C39,21.328,38.328,22,37.5,22z"/>
<path style="fill:#1565C0;" d="M37.5,28h-6c-0.828,0-1.5-0.672-1.5-1.5l0,0c0-0.828,0.672-1.5,1.5-1.5h6c0.828,0,1.5,0.672,1.5,1.5
	l0,0C39,27.328,38.328,28,37.5,28z"/>
</svg>